<?xml version="1.0" encoding="UTF-8"?>
<svg version="1.1" xmlns="http://www.w3.org/2000/svg" width="474" height="474">
<path d="M0 0 C156.42 0 312.84 0 474 0 C474 156.42 474 312.84 474 474 C317.58 474 161.16 474 0 474 C0 317.58 0 161.16 0 0 Z " fill="#FCFCFC" transform="translate(0,0)"/>
<path d="M0 0 C156.42 0 312.84 0 474 0 C474 156.42 474 312.84 474 474 C317.58 474 161.16 474 0 474 C0 317.58 0 161.16 0 0 Z M40 39 C40 169.35 40 299.7 40 434 C170.02 434 300.04 434 434 434 C434 303.65 434 173.3 434 39 C303.98 39 173.96 39 40 39 Z " fill="#FCFCFC" transform="translate(0,0)"/>
<path d="M0 0 C130.02 0 260.04 0 394 0 C394 130.35 394 260.7 394 395 C263.98 395 133.96 395 0 395 C0 264.65 0 134.3 0 0 Z M7 8 C7 133.4 7 258.8 7 388 C132.4 388 257.8 388 387 388 C387 262.6 387 137.2 387 8 C261.6 8 136.2 8 7 8 Z " fill="#2B2B2B" transform="translate(40,39)"/>
<path d="M0 0 C130.02 0 260.04 0 394 0 C394 0.33 394 0.66 394 1 C266.29 1 138.58 1 7 1 C7 2.32 7 3.64 7 5 C7 5.66 7 6.32 7 7 C132.4 7 257.8 7 387 7 C387 6.34 387 5.68 387 5 C387.33 4.67 387.66 4.34 388 4 C387.67 3.34 387.34 2.68 387 2 C388.98 2 390.96 2 393 2 C393.06861688 51.23341457 393.12150373 100.46682433 393.15319599 149.70027728 C393.15694826 155.50835551 393.16083121 161.31643364 393.16479492 167.12451172 C393.16558185 168.28083039 393.16636878 169.43714907 393.16717956 170.6285077 C393.1802453 189.36904699 393.20390556 208.10955876 393.23145839 226.85008171 C393.25948011 246.06935022 393.2761694 265.28860428 393.28226548 284.50789237 C393.28638865 296.37405206 393.29942677 308.24013399 393.3237494 320.10626975 C393.33956671 328.2354231 393.34440947 336.36453606 393.34050413 344.49370369 C393.33857633 349.18882042 393.34160012 353.88380095 393.35761642 358.57889366 C393.37215975 362.87339044 393.37298883 367.16765876 393.36269668 371.4621658 C393.36142368 373.01943179 393.36527636 374.57671173 393.37464955 376.13395002 C393.38661743 378.2442115 393.38024457 380.3536387 393.36914349 382.46388626 C393.37085223 384.22502915 393.37085223 384.22502915 393.37259549 386.02175069 C392.96692246 389.26439706 392.19542024 390.63428247 390 393 C390 392.34 390 391.68 390 391 C388.35 391.33 386.7 391.66 385 392 C384.67 390.68 384.34 389.36 384 388 C384.99 388 385.98 388 387 388 C387 262.6 387 137.2 387 8 C261.6 8 136.2 8 7 8 C7 132.08 7 256.16 7 384 C6.67 384 6.34 384 6 384 C5.67 259.59 5.34 135.18 5 7 C3.68 6.34 2.36 5.68 1 5 C0.67 3.35 0.34 1.7 0 0 Z " fill="#2F2F2F" transform="translate(40,39)"/>
<path d="M0 0 C33.11111111 0 33.11111111 0 40.75 6.25 C45.94667577 12.60149261 47.70266699 17.80910996 47.37890625 26.1015625 C46.45649421 33.15753913 43.14289213 37.3989968 37.78125 41.87109375 C35.85531803 43.09169537 34.20766758 43.49802388 32 44 C32.42410156 44.65597168 32.84820312 45.31194336 33.28515625 45.98779297 C35.19479077 48.94720185 37.09746976 51.91101949 39 54.875 C39.66773438 55.90753906 40.33546875 56.94007813 41.0234375 58.00390625 C41.65507812 58.99003906 42.28671875 59.97617187 42.9375 60.9921875 C43.52402344 61.90339355 44.11054688 62.81459961 44.71484375 63.75341797 C46 66 46 66 46 68 C42.37 68 38.74 68 35 68 C34.319375 66.55625 33.63875 65.1125 32.9375 63.625 C30.51153691 58.73124688 27.60592743 54.41139901 24.35546875 50.03125 C23 48 23 48 23 46 C18.38 46 13.76 46 9 46 C9 53.26 9 60.52 9 68 C6.03 68 3.06 68 0 68 C0 45.56 0 23.12 0 0 Z " fill="#303030" transform="translate(166,262)"/>
<path d="M0 0 C34.5243309 0 34.5243309 0 42.48828125 7.35546875 C47.49095983 12.79765914 47.53914085 18.74454913 47.34375 25.84375 C46.6421449 32.28576046 44.17264219 36.1907353 39.375 40.4375 C37.59965057 41.86010533 36.03627518 42.98186241 34 44 C35.72643499 48.96102008 38.42954796 53.27268051 41.125 57.75 C42.04618638 59.28531063 42.96556179 60.82170982 43.8828125 62.359375 C44.28902832 63.03452148 44.69524414 63.70966797 45.11376953 64.40527344 C46 66 46 66 46 67 C42.51212286 67.58813816 39.47009378 67.7672891 36 67 C33.01639002 64.32416351 31.27859895 61.12079121 29.375 57.625 C28.58416016 56.29082031 28.58416016 56.29082031 27.77734375 54.9296875 C24 48.45424107 24 48.45424107 24 46 C19.05 46 14.1 46 9 46 C9 52.93 9 59.86 9 67 C6.03 67 3.06 67 0 67 C0 44.89 0 22.78 0 0 Z " fill="#323232" transform="translate(142,141)"/>
<path d="M0 0 C19.65277778 0 19.65277778 0 26 4 C27.0725 4.5775 28.145 5.155 29.25 5.75 C33.58461887 9.29650635 36.23586957 13.7076087 38 19 C38.64209207 28.71781653 38.41306047 36.02668331 32.8125 44.1875 C27.97708555 49.02291445 23.73069596 51.65386081 17 53 C11.39 53 5.78 53 0 53 C0 35.51 0 18.02 0 0 Z " fill="#F8F8F8" transform="translate(97,269)"/>
<path d="M0 0 C3.3 0 6.6 0 10 0 C12.4368654 2.7785423 13.70658695 4.64687551 15.25 7.875 C16.02517296 9.35201874 16.80122456 10.82857667 17.578125 12.3046875 C17.96581055 13.06998779 18.35349609 13.83528809 18.75292969 14.6237793 C20.50964062 17.97109088 22.47538524 21.1779476 24.43847656 24.40722656 C27.12578422 28.86926649 29.67978774 33.40733945 32.25 37.9375 C33.29586639 39.78052064 34.34269869 41.62299358 35.390625 43.46484375 C35.84469727 44.265271 36.29876953 45.06569824 36.76660156 45.89038086 C37.78390882 47.63039512 38.88195725 49.32293587 40 51 C40.33 34.5 40.66 18 41 1 C43.64 1 46.28 1 49 1 C49 23.11 49 45.22 49 68 C39 68 39 68 36.73828125 66.06665039 C36.03251953 64.72074829 36.03251953 64.72074829 35.3125 63.34765625 C34.76392334 62.3512915 34.21534668 61.35492676 33.65014648 60.32836914 C32.83332397 58.71176392 32.83332397 58.71176392 32 57.0625 C30.80387349 54.85390227 29.60725593 52.64557041 28.41015625 50.4375 C27.54608154 48.79587891 27.54608154 48.79587891 26.66455078 47.12109375 C24.38822287 42.85289545 21.92870009 38.70762281 19.4375 34.5625 C16.18881578 29.09374414 13.09112055 23.56401699 10 18 C9.67 34.83 9.34 51.66 9 69 C6.03 69 3.06 69 0 69 C0 46.23 0 23.46 0 0 Z " fill="#363636" transform="translate(268,261)"/>
<path d="M0 0 C36.08894231 0 36.08894231 0 46.14453125 8.0859375 C54.27536669 16.47353617 56.34198192 24.47699382 56.38500977 35.6652832 C56.26523568 42.49888051 55.14069986 47.43002303 51 53 C50.49210937 53.72445312 49.98421875 54.44890625 49.4609375 55.1953125 C42.94692931 63.56164529 35.13329015 65.74815775 25 68 C16.75 68 8.5 68 0 68 C0 45.56 0 23.12 0 0 Z M9 7 C9 24.49 9 41.98 9 60 C24.57689873 60.56722615 24.57689873 60.56722615 37.6875 55.375 C45.56763723 47.28188609 47.36570225 40.56910913 47.28515625 29.48828125 C46.90530052 24.84155288 45.63630231 21.77931449 43 18 C42.46375 17.113125 41.9275 16.22625 41.375 15.3125 C32.04500539 6.22803157 21.66661586 7 9 7 Z " fill="#313131" transform="translate(88,262)"/>
<path d="M0 0 C2.97 0 5.94 0 9 0 C9 22.44 9 44.88 9 68 C6.03 68 3.06 68 0 68 C0 58.1 0 48.2 0 38 C-10.56 38 -21.12 38 -32 38 C-32 47.9 -32 57.8 -32 68 C-34.64 68 -37.28 68 -40 68 C-40 45.89 -40 23.78 -40 1 C-37.36 1 -34.72 1 -32 1 C-32 10.9 -32 20.8 -32 31 C-21.44 31 -10.88 31 0 31 C0 20.77 0 10.54 0 0 Z " fill="#2C2C2C" transform="translate(378,140)"/>
<path d="M0 0 C2.64 0 5.28 0 8 0 C8 9.9 8 19.8 8 30 C8.66 30 9.32 30 10 30 C10.26482178 29.41299316 10.52964355 28.82598633 10.80249023 28.22119141 C12.04012575 25.92557308 13.36105977 24.34043619 15.16015625 22.4609375 C15.78438477 21.80222656 16.40861328 21.14351563 17.05175781 20.46484375 C17.71530273 19.77519531 18.37884766 19.08554687 19.0625 18.375 C24.54742686 12.73868245 24.54742686 12.73868245 29.60546875 6.7265625 C34.68847124 0.26402017 34.68847124 0.26402017 38.98828125 -0.6015625 C41.74164375 -0.62255383 44.28807439 -0.45621179 47 0 C44.21359683 4.64400528 40.93916132 8.16850122 37.06640625 11.94140625 C34.5548937 14.44342348 32.25224557 17.08338161 29.94140625 19.76953125 C26.04106971 24.250602 22.00682836 28.61425629 18 33 C21.52982056 37.97795207 25.20801609 42.39274225 29.6796875 46.5546875 C31 48 31 48 31 50 C31.66 50 32.32 50 33 50 C34.515625 51.50390625 34.515625 51.50390625 36.25 53.5625 C36.86746094 54.28695312 37.48492187 55.01140625 38.12109375 55.7578125 C39.05115234 56.86769531 39.05115234 56.86769531 40 58 C41.10195868 59.31435434 42.20593444 60.62702187 43.3125 61.9375 C43.78300781 62.50339844 44.25351562 63.06929688 44.73828125 63.65234375 C45.97950473 65.13445384 45.97950473 65.13445384 48 66 C48 66.66 48 67.32 48 68 C43.04025821 68.75091418 38.77581223 69.22940847 34.51171875 66.27734375 C32.19679886 63.94643132 30.08340293 61.539393 28 59 C26.7104235 57.53981805 25.41891885 56.08133544 24.125 54.625 C23.59132813 53.99851562 23.05765625 53.37203125 22.5078125 52.7265625 C21.02203902 50.9695883 21.02203902 50.9695883 19.3046875 49.3984375 C18 48 18 48 18 46 C17.34 46 16.68 46 16 46 C13.69 43.36 11.38 40.72 9 38 C8.67 47.57 8.34 57.14 8 67 C5.36 67 2.72 67 0 67 C0 44.89 0 22.78 0 0 Z " fill="#333333" transform="translate(343,262)"/>
<path d="M0 0 C2.97 0 5.94 0 9 0 C9.01401855 2.20913086 9.01401855 2.20913086 9.02832031 4.46289062 C9.06832394 9.94984699 9.13411257 15.4362488 9.20751953 20.92285156 C9.23566889 23.29322156 9.25691329 25.66368438 9.27099609 28.03417969 C9.29250851 31.45035106 9.33920394 34.86541355 9.390625 38.28125 C9.39185364 39.33364868 9.39308228 40.38604736 9.39434814 41.47033691 C9.52441982 48.06958133 10.50605518 52.36230176 14 58 C17.4057605 61.02734267 20.4690563 61.48656808 25.01171875 61.28125 C29.82419641 60.6005066 32.38590465 58.79666423 35.3125 55 C37.43533218 51.22607613 38.12710065 48.51066467 38.20532227 44.25317383 C38.22526749 43.29240433 38.24521271 42.33163483 38.26576233 41.3417511 C38.28247482 40.30729355 38.29918732 39.272836 38.31640625 38.20703125 C38.33718735 37.14586594 38.35796844 36.08470062 38.37937927 34.99137878 C38.44481238 31.59848563 38.50373093 28.2055145 38.5625 24.8125 C38.60569114 22.51366378 38.64930562 20.21483547 38.69335938 17.91601562 C38.8004874 12.2774264 38.90226551 6.63875944 39 1 C41.64 1 44.28 1 47 1 C47.10186657 8.09826323 47.17166082 15.19633619 47.21972656 22.29516602 C47.23977552 24.70734705 47.26702192 27.11947989 47.30175781 29.53149414 C47.35057051 33.00939873 47.37303683 36.48665772 47.390625 39.96484375 C47.41127014 41.03395493 47.43191528 42.1030661 47.45318604 43.20457458 C47.45537925 50.61184366 46.48964385 57.22672205 41.29180908 62.84703064 C39.60771829 64.3908422 37.8804614 65.70484778 36 67 C35.113125 67.61875 34.22625 68.2375 33.3125 68.875 C26.34436735 71.24153562 19.35714803 71.01014474 12.625 68 C6.14748527 64.33426819 2.41836093 58.94476631 0 52 C-0.24050903 49.42460632 -0.24050903 49.42460632 -0.22705078 46.65893555 C-0.22689972 45.6182341 -0.22674866 44.57753265 -0.22659302 43.5052948 C-0.21110916 41.83784966 -0.21110916 41.83784966 -0.1953125 40.13671875 C-0.1924826 38.98959915 -0.18965271 37.84247955 -0.18673706 36.66059875 C-0.17555697 33.00279232 -0.15045595 29.34523222 -0.125 25.6875 C-0.11496741 23.20508167 -0.10584205 20.72265949 -0.09765625 18.24023438 C-0.07562471 12.16007244 -0.04216848 6.08005382 0 0 Z " fill="#333333" transform="translate(210,140)"/>
<path d="M0 0 C130.02 0 260.04 0 394 0 C394 0.33 394 0.66 394 1 C266.29 1 138.58 1 7 1 C7 2.32 7 3.64 7 5 C7 5.66 7 6.32 7 7 C132.4 7 257.8 7 387 7 C387 7.33 387 7.66 387 8 C261.6 8 136.2 8 7 8 C7 132.08 7 256.16 7 384 C6.67 384 6.34 384 6 384 C5.67 259.59 5.34 135.18 5 7 C3.68 6.34 2.36 5.68 1 5 C0.67 3.35 0.34 1.7 0 0 Z " fill="#4C4C4C" transform="translate(40,39)"/>
<path d="M0 0 C14.52 0 29.04 0 44 0 C44 2.64 44 5.28 44 8 C38.39 8 32.78 8 27 8 C27 27.8 27 47.6 27 68 C24.03 68 21.06 68 18 68 C18 48.2 18 28.4 18 8 C12.06 8 6.12 8 0 8 C0 5.36 0 2.72 0 0 Z " fill="#2C2C2C" transform="translate(275,140)"/>
<path d="M0 0 C14.52 0 29.04 0 44 0 C44 2.64 44 5.28 44 8 C38.06 8 32.12 8 26 8 C26 27.8 26 47.6 26 68 C23.03 68 20.06 68 17 68 C17 48.2 17 28.4 17 8 C11.39 8 5.78 8 0 8 C0 5.36 0 2.72 0 0 Z " fill="#373737" transform="translate(80,140)"/>
<path d="M0 0 C3.17625 -0.0825 6.3525 -0.165 9.625 -0.25 C10.6145166 -0.28641602 11.6040332 -0.32283203 12.62353516 -0.36035156 C18.43943633 -0.43324137 21.54985861 0.19062264 26 4 C29.58701079 7.94571187 29.50893382 12.16650449 29.34375 17.2734375 C28.80301102 21.56248073 27.74731324 23.61869139 25 27 C19.4090789 30.05931779 14.84888379 30.3834978 8.5625 30.1875 C5.736875 30.125625 2.91125 30.06375 0 30 C0 20.1 0 10.2 0 0 Z " fill="#FAFAFA" transform="translate(151,149)"/>
<path d="M0 0 C2.990625 -0.0825 5.98125 -0.165 9.0625 -0.25 C9.99070557 -0.28641602 10.91891113 -0.32283203 11.87524414 -0.36035156 C17.79161384 -0.43873919 21.17013709 0.5411138 26 4 C29.60548377 8.88484899 29.83440304 14.14063644 29 20 C27.75407784 23.59039935 25.93907025 26.21132772 23 28.6796875 C18.57456822 30.62733846 14.45838115 30.31798235 9.6875 30.1875 C4.8921875 30.0946875 4.8921875 30.0946875 0 30 C0 20.1 0 10.2 0 0 Z " fill="#FBFBFB" transform="translate(175,270)"/>
<path d="M0 0 C2.64 0 5.28 0 8 0 C8 22.11 8 44.22 8 67 C-2 67 -2 67 -4.40454102 64.86035156 C-4.93233154 63.8803418 -5.46012207 62.90033203 -6.00390625 61.890625 C-6.59880859 60.82585937 -7.19371094 59.76109375 -7.80664062 58.6640625 C-8.38607422 57.53742188 -8.96550781 56.41078125 -9.5625 55.25 C-10.17673828 54.13882813 -10.79097656 53.02765625 -11.42382812 51.8828125 C-16.18146983 43.15608849 -16.18146983 43.15608849 -17 39 C-16.34 39 -15.68 39 -15 39 C-15.33 37.35 -15.66 35.7 -16 34 C-13.32399437 34.36910422 -12.25277297 34.694566 -10.5 36.8125 C-10.005 37.534375 -9.51 38.25625 -9 39 C-8.360625 39.598125 -7.72125 40.19625 -7.0625 40.8125 C-5 43 -5 43 -1 50 C-0.67 33.5 -0.34 17 0 0 Z " fill="#2D2D2D" transform="translate(309,262)"/>
<path d="M0 0 C3.3 0 6.6 0 10 0 C10 22.77 10 45.54 10 69 C6.7 69 3.4 69 0 69 C0 46.23 0 23.46 0 0 Z " fill="#414141" transform="translate(234,261)"/>
<path d="M0 0 C36.63 0 73.26 0 111 0 C111 1.98 111 3.96 111 6 C74.37 6 37.74 6 0 6 C0 4.02 0 2.04 0 0 Z " fill="#323232" transform="translate(278,232)"/>
<path d="M0 0 C36.63 0 73.26 0 111 0 C111 1.98 111 3.96 111 6 C74.37 6 37.74 6 0 6 C0 4.02 0 2.04 0 0 Z " fill="#2F2F2F" transform="translate(86,232)"/>
<path d="M0 0 C2.97 0 5.94 0 9 0 C9 22.44 9 44.88 9 68 C6.03 68 3.06 68 0 68 C0 58.1 0 48.2 0 38 C0.66 38 1.32 38 2 38 C1.67 36.68 1.34 35.36 1 34 C0.34 34 -0.32 34 -1 34 C-0.67 22.78 -0.34 11.56 0 0 Z " fill="#3A3A3A" transform="translate(378,140)"/>
<path d="M0 0 C-0.33 0.61875 -0.66 1.2375 -1 1.875 C-2.14193235 3.91018344 -2.14193235 3.91018344 -2 6 C-8.6 6 -15.2 6 -22 6 C-22 23.49 -22 40.98 -22 59 C-15.73 59 -9.46 59 -3 59 C-6.86790003 60.93395001 -8.1500459 61.23289353 -12.25 61.125 C-13.58804688 61.09792969 -13.58804688 61.09792969 -14.953125 61.0703125 C-15.62859375 61.04710937 -16.3040625 61.02390625 -17 61 C-16.34 61.66 -15.68 62.32 -15 63 C-17.64 62.67 -20.28 62.34 -23 62 C-23 62.99 -23 63.98 -23 65 C-24.98 65 -26.96 65 -29 65 C-29.02312684 56.67271053 -29.04091683 48.34543437 -29.05181217 40.01812077 C-29.05704026 36.15179882 -29.06413654 32.28549879 -29.07543945 28.41918945 C-29.086271 24.69096599 -29.0922774 20.96276366 -29.09487724 17.23452568 C-29.09673101 15.80910344 -29.10035071 14.38368241 -29.10573006 12.95826912 C-29.11294393 10.96836592 -29.11340808 8.97844166 -29.11352539 6.98852539 C-29.115746 5.85379288 -29.11796661 4.71906036 -29.12025452 3.54994202 C-29 1 -29 1 -28 0 C-24.63982658 -0.38506414 -21.25276395 -0.47105365 -17.875 -0.625 C-16.9365625 -0.6765625 -15.998125 -0.728125 -15.03125 -0.78125 C-9.8526582 -1.02784961 -5.10054452 -0.94663846 0 0 Z " fill="#2E2E2E" transform="translate(119,263)"/>
<path d="M0 0 C2.64 0 5.28 0 8 0 C8 9.9 8 19.8 8 30 C9.32 29.67 10.64 29.34 12 29 C12.76347254 31.48128576 12.9921793 33.37539357 12.9375 36 C13.00015007 39.00720349 13.4479829 40.47797221 15 43 C13.02 41.35 11.04 39.7 9 38 C8.67 47.57 8.34 57.14 8 67 C5.36 67 2.72 67 0 67 C0 44.89 0 22.78 0 0 Z " fill="#292929" transform="translate(343,262)"/>
<path d="M0 0 C7.92 0 15.84 0 24 0 C24 0.33 24 0.66 24 1 C13.605 1.495 13.605 1.495 3 2 C2.67 23.12 2.34 44.24 2 66 C3.98 66 5.96 66 8 66 C8 65.01 8 64.02 8 63 C9.9375 62.4375 9.9375 62.4375 12 62 C12.33 62.33 12.66 62.66 13 63 C13.33 62.34 13.66 61.68 14 61 C17.96 61 21.92 61 26 61 C26 60.34 26 59.68 26 59 C26.80050781 58.79697266 26.80050781 58.79697266 27.6171875 58.58984375 C34.36964471 56.63887428 39.44131398 53.23574196 45 49 C45.495 50.98 45.495 50.98 46 53 C47.98 52.505 47.98 52.505 50 52 C48.60793039 57.25892965 45.438618 60.13027184 41 63 C27.03632537 69.31261972 16.57762756 68 0 68 C0 45.56 0 23.12 0 0 Z " fill="#323232" transform="translate(88,262)"/>
<path d="M0 0 C34.2 0 34.2 0 40.9375 6.1875 C41.52402344 6.71730469 42.11054688 7.24710938 42.71484375 7.79296875 C43.35099609 8.39044922 43.35099609 8.39044922 44 9 C43.01 9.33 42.02 9.66 41 10 C39.79117904 12.00016466 39.79117904 12.00016466 39 14 C38.505 12.02 38.505 12.02 38 10 C37.01 10.99 36.02 11.98 35 13 C33.83597656 12.03320312 33.83597656 12.03320312 32.6484375 11.046875 C28.28073575 8.13507383 23.72503347 8.33138793 18.625 8.25 C15.44875 8.1675 12.2725 8.085 9 8 C9 16.91 9 25.82 9 35 C8.67 35 8.34 35 8 35 C7.97494385 34.26362305 7.9498877 33.52724609 7.92407227 32.76855469 C7.80795727 29.42886622 7.68530082 26.08944903 7.5625 22.75 C7.52318359 21.59113281 7.48386719 20.43226563 7.44335938 19.23828125 C7.38051758 17.56572266 7.38051758 17.56572266 7.31640625 15.859375 C7.27974854 14.83295898 7.24309082 13.80654297 7.20532227 12.74902344 C7.02717872 10.36389113 6.67222637 8.28700501 6 6 C4.515 8.475 4.515 8.475 3 11 C2.34 9.68 1.68 8.36 1 7 C1 26.8 1 46.6 1 67 C0.67 67 0.34 67 0 67 C0 44.89 0 22.78 0 0 Z M7 3 C8 5 8 5 8 5 Z " fill="#383838" transform="translate(142,141)"/>
<path d="M0 0 C14.52 0 29.04 0 44 0 C44 2.64 44 5.28 44 8 C38.39 8 32.78 8 27 8 C27 27.8 27 47.6 27 68 C26.67 68 26.34 68 26 68 C25.99191315 67.26972595 25.98382629 66.5394519 25.97549438 65.78704834 C25.89751607 58.90099425 25.81021552 52.01511447 25.71247292 45.12931442 C25.66255175 41.58934184 25.61622157 38.04939849 25.578125 34.50927734 C25.53415758 30.43828612 25.47452336 26.36765491 25.4140625 22.296875 C25.40251129 21.02696716 25.39096008 19.75705933 25.37905884 18.44866943 C25.35918915 17.26774719 25.33931946 16.08682495 25.31884766 14.87011719 C25.30552399 13.83087097 25.29220032 12.79162476 25.2784729 11.72088623 C24.99973163 8.99737784 24.39725813 7.32828496 23 5 C22.67 5.33 22.34 5.66 22 6 C22 7.32 22 8.64 22 10 C20.68 10 19.36 10 18 10 C18 9.34 18 8.68 18 8 C12.06 8 6.12 8 0 8 C0 5.36 0 2.72 0 0 Z " fill="#424242" transform="translate(275,140)"/>
<path d="M0 0 C2.64 0 5.28 0 8 0 C8.05068173 7.18991081 8.08572588 14.3797756 8.10986328 21.56982422 C8.11992504 24.01613079 8.13357581 26.46242533 8.15087891 28.90869141 C8.17511919 32.42353282 8.18648138 35.9382153 8.1953125 39.453125 C8.20563507 40.5480426 8.21595764 41.64296021 8.22659302 42.77105713 C8.22674408 43.79181335 8.22689514 44.81256958 8.22705078 45.86425781 C8.231492 46.76138489 8.23593323 47.65851196 8.24050903 48.58282471 C7.98449501 51.15582894 7.30021324 52.78549571 6 55 C5.67 54.34 5.34 53.68 5 53 C5.33 52.34 5.66 51.68 6 51 C4.02 50.67 2.04 50.34 0 50 C0 33.5 0 17 0 0 Z " fill="#2C2C2C" transform="translate(249,141)"/>
<path d="M0 0 C4.12582397 -0.09969463 8.25117097 -0.17185233 12.37792969 -0.21972656 C13.77844473 -0.2397063 15.17887782 -0.2669002 16.57910156 -0.30175781 C26.41812653 -0.54036469 33.10699764 -0.14841505 40.875 6.4375 C42.93879783 8.92619739 44.03648977 10.93428564 45 14 C44.01 14.33 43.02 14.66 42 15 C40.66666667 14.33333333 39.33333333 13.66666667 38 13 C37.01 13.33 36.02 13.66 35 14 C34.5875 13.54625 34.175 13.0925 33.75 12.625 C30.58524977 9.68630336 27.725814 8.75915462 23.453125 8.5859375 C22.69161133 8.55032715 21.93009766 8.5147168 21.14550781 8.47802734 C20.18999023 8.44402832 19.23447266 8.4100293 18.25 8.375 C15.1975 8.25125 12.145 8.1275 9 8 C9 17.9 9 27.8 9 38 C14.94 38 20.88 38 27 38 C27 38.33 27 38.66 27 39 C25.02966797 39.09087891 25.02966797 39.09087891 23.01953125 39.18359375 C21.28384459 39.26803256 19.54816802 39.35267888 17.8125 39.4375 C16.94818359 39.47681641 16.08386719 39.51613281 15.19335938 39.55664062 C11.04085878 39.76347016 7.05462138 40.00103531 3 41 C3 38.69 3 36.38 3 34 C3.66 34.66 4.32 35.32 5 36 C5.99 35.505 5.99 35.505 7 35 C7.33 35.99 7.66 36.98 8 38 C8 28.43 8 18.86 8 9 C5.03 8.505 5.03 8.505 2 8 C2 6.68 2 5.36 2 4 C2.99 4 3.98 4 5 4 C5 3.34 5 2.68 5 2 C3.35 1.67 1.7 1.34 0 1 C0 0.67 0 0.34 0 0 Z " fill="#353535" transform="translate(166,262)"/>
<path d="M0 0 C0.33 0 0.66 0 1 0 C1 19.47 1 38.94 1 59 C-1.31 59 -3.62 59 -6 59 C-6 40.19 -6 21.38 -6 2 C-4.35 1.67 -2.7 1.34 -1 1 C-0.67 0.67 -0.34 0.34 0 0 Z " fill="#2D2D2D" transform="translate(104,149)"/>
<path d="M0 0 C2.9375 1.4375 2.9375 1.4375 5 4 C6.07516032 7.85501563 6.63644516 11.39152951 5.140625 15.171875 C3.48320517 17.82828761 1.85247083 18.73223519 -1 20 C-4.5 20.5 -4.5 20.5 -8 20 C-10.875 17.5625 -10.875 17.5625 -13 15 C-13.33 14.67 -13.66 14.34 -14 14 C-14.50213572 10.92362417 -14.53723614 8.07215618 -14 5 C-9.7878373 -0.15989931 -6.5097924 -0.92997034 0 0 Z " fill="#3A3A3A" transform="translate(231,225)"/>
<path d="M0 0 C2.30521286 3.4578193 2.28442743 4.93745629 2.37890625 9.0234375 C2.43014648 10.80234375 2.43014648 10.80234375 2.48242188 12.6171875 C2.50884766 13.85726562 2.53527344 15.09734375 2.5625 16.375 C2.62261197 18.82040599 2.68627843 21.26572781 2.75390625 23.7109375 C2.77783447 24.79681152 2.8017627 25.88268555 2.82641602 27.00146484 C2.92208535 29.97077781 2.92208535 29.97077781 3.57788086 32.70556641 C4 35 4 35 3 38 C6.3 38.33 9.6 38.66 13 39 C13 39.33 13 39.66 13 40 C12.18015625 39.94199219 11.3603125 39.88398438 10.515625 39.82421875 C9.43796875 39.77910156 8.3603125 39.73398438 7.25 39.6875 C6.18265625 39.62949219 5.1153125 39.57148438 4.015625 39.51171875 C0.8803892 39.75157905 0.8803892 39.75157905 -1.34375 42 C-3.47936651 45.86828651 -3.66445527 48.96138402 -3.75 53.3125 C-3.77964844 54.05306641 -3.80929688 54.79363281 -3.83984375 55.55664062 C-3.91005845 57.37052046 -3.95735048 59.18526278 -4 61 C-2.02 61 -0.04 61 2 61 C2 61.33 2 61.66 2 62 C-0.31 62 -2.62 62 -5 62 C-5 42.2 -5 22.4 -5 2 C-4.01 2.495 -4.01 2.495 -3 3 C-3 3.66 -3 4.32 -3 5 C-2.01 3.35 -1.02 1.7 0 0 Z " fill="#2B2B2B" transform="translate(148,146)"/>
<path d="M0 0 C9.765625 -0.48828125 9.765625 -0.48828125 13 0 C15.43359375 2.33203125 15.43359375 2.33203125 17 5 C16.8125 8 16.8125 8 16 11 C15.03609485 15.00923944 15.03609485 15.00923944 16 19 C13.25 19.25 13.25 19.25 10 19 C7.625 17 7.625 17 6 15 C6 16.32 6 17.64 6 19 C4.02 19 2.04 19 0 19 C0 12.73 0 6.46 0 0 Z " fill="#494949" transform="translate(242,225)"/>
<path d="M0 0 C0.99 0 1.98 0 3 0 C3 22.11 3 44.22 3 67 C0.36 67 -2.28 67 -5 67 C-5.05785647 63.04172765 -5.09354717 59.0835633 -5.125 55.125 C-5.14175781 53.99707031 -5.15851563 52.86914062 -5.17578125 51.70703125 C-5.18222656 50.63066406 -5.18867188 49.55429688 -5.1953125 48.4453125 C-5.20578613 47.45031738 -5.21625977 46.45532227 -5.22705078 45.43017578 C-5 43 -5 43 -3 41 C-3 41.66 -3 42.32 -3 43 C-1.515 42.505 -1.515 42.505 0 42 C1.28774446 38.13676662 1.23382793 34.42509463 1.31640625 30.39453125 C1.33718735 29.55532639 1.35796844 28.71612152 1.37937927 27.85148621 C1.44474018 25.17190706 1.50369714 22.49223031 1.5625 19.8125 C1.60569802 17.99543263 1.64931273 16.17837512 1.69335938 14.36132812 C1.8004078 9.90765201 1.90171319 5.45387774 2 1 C1.34 0.67 0.68 0.34 0 0 Z " fill="#2C2C2C" transform="translate(383,141)"/>
<path d="M0 0 C7.92 0 15.84 0 24 0 C24 0.33 24 0.66 24 1 C13.605 1.495 13.605 1.495 3 2 C2.67 23.12 2.34 44.24 2 66 C8.435 65.505 8.435 65.505 15 65 C22.84024533 64.74153037 22.84024533 64.74153037 25 65 C25.66 65.66 26.32 66.32 27 67 C18.94463602 71.02768199 9.00617072 68 0 68 C0 45.56 0 23.12 0 0 Z " fill="#4F4F4F" transform="translate(88,262)"/>
<path d="M0 0 C0 0.99 0 1.98 0 3 C0.33 3.33 0.66 3.66 1 4 C1.08758003 5.99964982 1.10696576 8.0023611 1.09765625 10.00390625 C1.09443359 11.21884766 1.09121094 12.43378906 1.08789062 13.68554688 C1.07951172 14.96494141 1.07113281 16.24433594 1.0625 17.5625 C1.05798828 18.84576172 1.05347656 20.12902344 1.04882812 21.45117188 C1.03699545 24.63416022 1.02051068 27.81705762 1 31 C-0.98 31.33 -2.96 31.66 -5 32 C-5 22.1 -5 12.2 -5 2 C-4.67 2.66 -4.34 3.32 -4 4 C-3.34 4 -2.68 4 -2 4 C-1.34 2.68 -0.68 1.36 0 0 Z " fill="#2F2F2F" transform="translate(349,297)"/>
<path d="M0 0 C7.02653722 -0.4763754 7.02653722 -0.4763754 10.9375 1.4375 C13.80424554 4.99921415 14.31096221 8.47111448 14 13 C12.76564251 16.29161998 12.049743 16.966838 9 19 C3.65454545 19.32727273 3.65454545 19.32727273 1 18 C1 17.34 1 16.68 1 16 C0.34 15.67 -0.32 15.34 -1 15 C1.6739124 14.10869587 4.23723823 13.52268466 7 13 C7.04254356 11.00045254 7.04080783 8.99958364 7 7 C5.99163938 5.76732652 5.99163938 5.76732652 3.93359375 5.90234375 C2.69802734 5.91974609 2.69802734 5.91974609 1.4375 5.9375 C0.19806641 5.95103516 0.19806641 5.95103516 -1.06640625 5.96484375 C-2.02353516 5.98224609 -2.02353516 5.98224609 -3 6 C-2.01 4.02 -1.02 2.04 0 0 Z " fill="#353535" transform="translate(223,225)"/>
<path d="M0 0 C1.0818457 0.14695313 1.0818457 0.14695313 2.18554688 0.296875 C2.92611328 0.37164062 3.66667969 0.44640625 4.4296875 0.5234375 C6.24731116 0.71106317 8.06084148 0.93762988 9.87304688 1.171875 C9.87304688 1.501875 9.87304688 1.831875 9.87304688 2.171875 C5.25304687 2.171875 0.63304687 2.171875 -4.12695312 2.171875 C-4.12695312 9.101875 -4.12695312 16.031875 -4.12695312 23.171875 C-6.43695313 22.841875 -8.74695313 22.511875 -11.12695312 22.171875 C-11.26288756 19.62839075 -11.3614422 17.09226004 -11.43945312 14.546875 C-11.48134766 13.83402344 -11.52324219 13.12117187 -11.56640625 12.38671875 C-11.65404834 8.56552361 -11.34324273 5.82920118 -9.12695312 2.640625 C-5.64254322 -0.22675398 -4.31389098 -0.39396265 0 0 Z " fill="#353535" transform="translate(155.126953125,184.828125)"/>
<path d="M0 0 C3.7806643 1.93233953 6.69646946 4.581887 9.8125 7.4375 C8.8225 7.7675 7.8325 8.0975 6.8125 8.4375 C5.60367904 10.43766466 5.60367904 10.43766466 4.8125 12.4375 C4.4825 11.1175 4.1525 9.7975 3.8125 8.4375 C2.8225 9.4275 1.8325 10.4175 0.8125 11.4375 C-0.35152344 10.47070312 -0.35152344 10.47070312 -1.5390625 9.484375 C-5.90663492 6.57266006 -10.45848319 6.76759156 -15.5625 6.6875 C-16.48933594 6.65785156 -17.41617188 6.62820312 -18.37109375 6.59765625 C-20.64331435 6.52738139 -22.91453459 6.47447952 -25.1875 6.4375 C-25.1875 6.1075 -25.1875 5.7775 -25.1875 5.4375 C-24.00671875 5.38851562 -22.8259375 5.33953125 -21.609375 5.2890625 C-20.05206063 5.21401121 -18.49477009 5.13846439 -16.9375 5.0625 C-16.16019531 5.0315625 -15.38289062 5.000625 -14.58203125 4.96875 C-9.11370093 4.71091758 -9.11370093 4.71091758 -4.1875 2.4375 C-4.1875 1.7775 -4.1875 1.1175 -4.1875 0.4375 C-2.1875 -0.5625 -2.1875 -0.5625 0 0 Z " fill="#373737" transform="translate(176.1875,142.5625)"/>
<path d="M0 0 C35.97 0 71.94 0 109 0 C109 1.98 109 3.96 109 6 C108.505 4.515 108.505 4.515 108 3 C105.21727328 1.9440345 102.52457682 1.86675367 99.57073975 1.84178162 C98.24988373 1.82709839 98.24988373 1.82709839 96.90234375 1.81211853 C95.94424805 1.80636307 94.98615234 1.8006076 93.99902344 1.79467773 C92.98406799 1.78477814 91.96911255 1.77487854 90.92340088 1.76467896 C87.56874931 1.73309254 84.21408359 1.70831772 80.859375 1.68359375 C78.53338249 1.66302176 76.20739369 1.64202523 73.88140869 1.62062073 C67.75926729 1.56542537 61.63709228 1.51600484 55.51489258 1.46777344 C49.26771047 1.41753995 43.02057715 1.36186352 36.7734375 1.30664062 C24.51566668 1.19909004 12.2578535 1.09763812 0 1 C0 0.67 0 0.34 0 0 Z " fill="#3C3C3C" transform="translate(88,232)"/>
<path d="M0 0 C14.52 0 29.04 0 44 0 C44 2.64 44 5.28 44 8 C42.68 7.67 41.36 7.34 40 7 C40.66 7 41.32 7 42 7 C42 5.35 42 3.7 42 2 C28.47 2 14.94 2 1 2 C1 3.65 1 5.3 1 7 C2.65 7 4.3 7 6 7 C6 7.33 6 7.66 6 8 C4.02 8 2.04 8 0 8 C0 5.36 0 2.72 0 0 Z " fill="#464646" transform="translate(80,140)"/>
<path d="M0 0 C0.33 0 0.66 0 1 0 C1.01417969 0.556875 1.02835938 1.11375 1.04296875 1.6875 C1.33565629 6.37050064 1.96665258 9.35019169 4.75 13.1875 C6.12109375 15.13671875 6.12109375 15.13671875 7 17 C5.8125 20.5 5.8125 20.5 4 23 C2.35 23 0.7 23 -1 23 C-1.33 22.01 -1.66 21.02 -2 20 C-3.65 20.66 -5.3 21.32 -7 22 C-6.21625 20.96875 -5.4325 19.9375 -4.625 18.875 C-0.95134263 13.10954339 -0.62792478 6.67287229 0 0 Z " fill="#373737" transform="translate(135,292)"/>
<path d="M0 0 C0.99 0 1.98 0 3 0 C3.4731614 7.88602342 3.17981006 13.20780865 -1 20 C-1.99 19.34 -2.98 18.68 -4 18 C-4.66 18.33 -5.32 18.66 -6 19 C-7.32 18.01 -8.64 17.02 -10 16 C-8.68 14.35 -7.36 12.7 -6 11 C-5.67 11.33 -5.34 11.66 -5 12 C-4.67 11.34 -4.34 10.68 -4 10 C-1.9375 8.875 -1.9375 8.875 0 8 C0 5.36 0 2.72 0 0 Z " fill="#333333" transform="translate(210,279)"/>
<path d="M0 0 C0.99 0.99 1.98 1.98 3 3 C1.4972742 7.20763224 -1.23332995 8.8027758 -5 11 C-5.66 11 -6.32 11 -7 11 C-6.67 10.01 -6.34 9.02 -6 8 C-5.34 7.67 -4.68 7.34 -4 7 C-7.04386724 6.91773332 -9.07175348 7.02391783 -12 8 C-14.1875 7.0625 -14.1875 7.0625 -16 6 C-14.03544508 5.2674541 -12.07079459 4.53516259 -10.10546875 3.8046875 C-8.42792796 3.16354946 -6.77195188 2.46606604 -5.125 1.75 C-4.42375 1.5025 -3.7225 1.255 -3 1 C-2.34 1.33 -1.68 1.66 -1 2 C-0.67 1.34 -0.34 0.68 0 0 Z " fill="#2D2D2D" transform="translate(205,295)"/>
<path d="M0 0 C0.433125 0.474375 0.86625 0.94875 1.3125 1.4375 C3.02309613 3.23686957 3.02309613 3.23686957 6 4 C10 9.37142857 10 9.37142857 10 12 C6.37 12 2.74 12 -1 12 C-1.33 10.68 -1.66 9.36 -2 8 C-1.01 8 -0.02 8 1 8 C0.4740625 6.8553125 0.4740625 6.8553125 -0.0625 5.6875 C-1 3 -1 3 0 0 Z " fill="#313131" transform="translate(202,318)"/>
<path d="M0 0 C2.375 -0.125 2.375 -0.125 5 0 C7 2 7 2 7.25 5 C7 8 7 8 5 10 C1.70285207 9.67028521 0.3773161 9.3773161 -2 7 C-1.6730244 4.38419521 -1.17960932 2.35921863 0 0 Z " fill="#F1F1F1" transform="translate(224,230)"/>
<path d="M0 0 C3.05387928 1.52693964 3.65962073 4.03617325 5.125 7.0625 C5.66382813 8.16722656 6.20265625 9.27195312 6.7578125 10.41015625 C7.16773438 11.26480469 7.57765625 12.11945313 8 13 C7.34 13.66 6.68 14.32 6 15 C5.7525 14.030625 5.505 13.06125 5.25 12.0625 C4.63125 10.5465625 4.63125 10.5465625 4 9 C1.96756452 8.03122943 1.96756452 8.03122943 0 8 C0.33 9.65 0.66 11.3 1 13 C0.01 13.33 -0.98 13.66 -2 14 C-2.99 12.02 -3.98 10.04 -5 8 C-4.34 8 -3.68 8 -3 8 C-3.0928125 6.8553125 -3.0928125 6.8553125 -3.1875 5.6875 C-3 3 -3 3 -1.5 1.1875 C-1.005 0.795625 -0.51 0.40375 0 0 Z " fill="#3B3B3B" transform="translate(293,288)"/>
<path d="M0 0 C0.33 1.98 0.66 3.96 1 6 C-3.12168689 7.62950412 -5.70700357 8.26264601 -10 7 C-10 5.02 -10 3.04 -10 1 C-6.42181037 -1.33958553 -4.07775191 -0.9267618 0 0 Z " fill="#3B3B3B" transform="translate(258,228)"/>
<path d="M0 0 C0.33 0 0.66 0 1 0 C1 9.9 1 19.8 1 30 C6.94 30 12.88 30 19 30 C19 30.33 19 30.66 19 31 C17.02966797 31.09087891 17.02966797 31.09087891 15.01953125 31.18359375 C13.28384459 31.26803256 11.54816802 31.35267888 9.8125 31.4375 C8.94818359 31.47681641 8.08386719 31.51613281 7.19335938 31.55664062 C3.04085878 31.76347016 -0.94537862 32.00103531 -5 33 C-5 30.69 -5 28.38 -5 26 C-4.34 26.66 -3.68 27.32 -3 28 C-2.34 27.67 -1.68 27.34 -1 27 C-0.67 27.99 -0.34 28.98 0 30 C0 20.1 0 10.2 0 0 Z " fill="#535353" transform="translate(174,270)"/>
<path d="M0 0 C4.04191465 4.49101628 6.43674441 9.58984989 9 15 C8.01 15.33 7.02 15.66 6 16 C3 11.25 3 11.25 3 9 C1.35 8.67 -0.3 8.34 -2 8 C-2.33 6.68 -2.66 5.36 -3 4 C-3.66 4 -4.32 4 -5 4 C-4.67 3.01 -4.34 2.02 -4 1 C-1.9375 0.3125 -1.9375 0.3125 0 0 Z " fill="#363636" transform="translate(278,262)"/>
<path d="M0 0 C3 3 3 3 4 6 C3.34 6.66 2.68 7.32 2 8 C1.67043065 9.97760261 1.67043065 9.97760261 1.68115234 12.26611328 C1.66128265 13.14687531 1.64141296 14.02763733 1.62094116 14.93508911 C1.60938995 15.88721283 1.59783875 16.83933655 1.5859375 17.8203125 C1.56657135 18.79410858 1.5472052 19.76790466 1.5272522 20.77120972 C1.46735442 23.88905003 1.42103029 27.00692706 1.375 30.125 C1.33682961 32.23569341 1.29777844 34.34637108 1.2578125 36.45703125 C1.16164473 41.63788144 1.07662736 46.81882597 1 52 C0.67 52 0.34 52 0 52 C0 34.84 0 17.68 0 0 Z " fill="#E0E0E0" transform="translate(277,278)"/>
<path d="M0 0 C1.11544282 3.34632847 0.67217232 4.63913839 0 8 C0.33 8.99 0.66 9.98 1 11 C-0.98 11 -2.96 11 -5 11 C-6.32 8.03 -7.64 5.06 -9 2 C-5.62182575 1.15545644 -3.32534757 0.89155081 0 2 C0 1.34 0 0.68 0 0 Z " fill="#333333" transform="translate(257,233)"/>
<path d="M0 0 C1.54571278 2.31856917 2.79618552 4.50638429 4 7 C3.01 7 2.02 7 1 7 C1 7.99 1 8.98 1 10 C-2 11 -2 11 -4.125 10.25 C-6 9 -6 9 -7 6 C-6.01 5.67 -5.02 5.34 -4 5 C-3.67 4.01 -3.34 3.02 -3 2 C-2.34 2 -1.68 2 -1 2 C-0.67 1.34 -0.34 0.68 0 0 Z " fill="#393939" transform="translate(219,190)"/>
<path d="M0 0 C1.1446875 1.175625 1.1446875 1.175625 2.3125 2.375 C4.90891805 5.07257717 4.90891805 5.07257717 8 7 C8 7.66 8 8.32 8 9 C4.37 9 0.74 9 -3 9 C-1.125 2.25 -1.125 2.25 0 0 Z " fill="#444444" transform="translate(383,321)"/>
<path d="M0 0 C0.33 0 0.66 0 1 0 C1 16.83 1 33.66 1 51 C0.01 50.01 -0.98 49.02 -2 48 C-1.505 47.505 -1.505 47.505 -1 47 C-0.87767356 45.52749355 -0.8222544 44.04934289 -0.79467773 42.57202148 C-0.77473251 41.63112167 -0.75478729 40.69022186 -0.73423767 39.72080994 C-0.71752518 38.69790359 -0.70081268 37.67499725 -0.68359375 36.62109375 C-0.66281265 35.57929459 -0.64203156 34.53749542 -0.62062073 33.46412659 C-0.55500943 30.12198753 -0.49618669 26.77976715 -0.4375 23.4375 C-0.39432578 21.17772582 -0.35071186 18.91795999 -0.30664062 16.65820312 C-0.19931633 11.10555579 -0.09757188 5.55282679 0 0 Z " fill="#B0B0B0" transform="translate(308,262)"/>
<path d="M0 0 C4.87255415 1.35348726 6.52405881 3.6900283 9 8 C9 8.33 9 8.66 9 9 C6.03 9 3.06 9 0 9 C-0.87890625 2.84765625 -0.87890625 2.84765625 -1 1 C-0.67 0.67 -0.34 0.34 0 0 Z " fill="#2A2A2A" transform="translate(179,199)"/>
<path d="M0 0 C3.96 0 7.92 0 12 0 C12.33 0.66 12.66 1.32 13 2 C10.36 2.33 7.72 2.66 5 3 C4.67 3.99 4.34 4.98 4 6 C3.67 6 3.34 6 3 6 C2.67 8.64 2.34 11.28 2 14 C1.67 14 1.34 14 1 14 C0.67 9.38 0.34 4.76 0 0 Z " fill="#2B2B2B" transform="translate(243,226)"/>
<path d="M0 0 C0.66 0 1.32 0 2 0 C2.66796875 1.79296875 2.66796875 1.79296875 3 4 C1.92578125 5.73828125 1.92578125 5.73828125 0.3125 7.3125 C-0.46673828 8.11107422 -0.46673828 8.11107422 -1.26171875 8.92578125 C-3 10 -3 10 -5.20703125 9.66796875 C-5.79871094 9.44753906 -6.39039063 9.22710937 -7 9 C-7.125 6.125 -7.125 6.125 -7 3 C-6.34 2.34 -5.68 1.68 -5 1 C-4.67 2.32 -4.34 3.64 -4 5 C-3.38125 4.175 -2.7625 3.35 -2.125 2.5 C-1.42375 1.675 -0.7225 0.85 0 0 Z " fill="#2C2C2C" transform="translate(369,279)"/>
<path d="M0 0 C2.125 0.9375 2.125 0.9375 4 2 C3.34 2 2.68 2 2 2 C1.67 3.65 1.34 5.3 1 7 C-2.04842865 7.90901939 -4.59661636 8.06173367 -7.765625 7.87890625 C-8.65507812 7.83056641 -9.54453125 7.78222656 -10.4609375 7.73242188 C-11.38132813 7.67634766 -12.30171875 7.62027344 -13.25 7.5625 C-14.18585938 7.51029297 -15.12171875 7.45808594 -16.0859375 7.40429688 C-18.39098887 7.27493175 -20.69557289 7.13997966 -23 7 C-23 6.67 -23 6.34 -23 6 C-21.81921875 5.95101562 -20.6384375 5.90203125 -19.421875 5.8515625 C-17.86456063 5.77651121 -16.30727009 5.70096439 -14.75 5.625 C-13.97269531 5.5940625 -13.19539062 5.563125 -12.39453125 5.53125 C-6.92620093 5.27341758 -6.92620093 5.27341758 -2 3 C-2 2.34 -2 1.68 -2 1 C-1.34 0.67 -0.68 0.34 0 0 Z " fill="#575757" transform="translate(174,142)"/>
<path d="M0 0 C2 1 2 1 3 3 C2.67 3.66 2.34 4.32 2 5 C2.99 4.67 3.98 4.34 5 4 C5 4.66 5 5.32 5 6 C5.66 6 6.32 6 7 6 C6.67 7.65 6.34 9.3 6 11 C4.68 11.33 3.36 11.66 2 12 C1.01 10.35 0.02 8.7 -1 7 C-0.67 6.67 -0.34 6.34 0 6 C-0.165 5.175 -0.33 4.35 -0.5 3.5 C-0.665 2.675 -0.83 1.85 -1 1 C-0.67 0.67 -0.34 0.34 0 0 Z " fill="#2D2D2D" transform="translate(128,268)"/>
<path d="M0 0 C2.64 0 5.28 0 8 0 C7.67 1.98 7.34 3.96 7 6 C7.99 6.66 8.98 7.32 10 8 C6.04 8 2.08 8 -2 8 C-0.68 6.68 0.64 5.36 2 4 C1.34 2.68 0.68 1.36 0 0 Z " fill="#444444" transform="translate(230,202)"/>
<path d="M0 0 C1.70884005 1.62339805 3.37446717 3.29319053 5 5 C5 5.66 5 6.32 5 7 C4.01 6.67 3.02 6.34 2 6 C1.67 5.34 1.34 4.68 1 4 C1 4.99 1 5.98 1 7 C1 8.32 1 9.64 1 11 C-0.875 10.75 -0.875 10.75 -3 10 C-4.25 7.9375 -4.25 7.9375 -5 6 C-3.625 4 -3.625 4 -2 2 C-1.34 2 -0.68 2 0 2 C0 1.34 0 0.68 0 0 Z " fill="#343434" transform="translate(202,315)"/>
<path d="M0 0 C0.33 0 0.66 0 1 0 C1.01417969 0.556875 1.02835938 1.11375 1.04296875 1.6875 C1.43550953 7.96815254 3.28345924 11.96689867 7 17 C6.34 17.99 5.68 18.98 5 20 C4.67 18.35 4.34 16.7 4 15 C2.35 15.33 0.7 15.66 -1 16 C-2.55373847 12.89252306 -1.58528628 10.25773473 -1.0625 6.875 C-0.86785156 5.59367187 -0.67320312 4.31234375 -0.47265625 2.9921875 C-0.31667969 2.00476563 -0.16070312 1.01734375 0 0 Z " fill="#353535" transform="translate(135,292)"/>
<path d="M0 0 C0.33 1.32 0.66 2.64 1 4 C2.32 3.67 3.64 3.34 5 3 C3.52307692 7.67692308 3.52307692 7.67692308 0.875 9.3125 C-0.053125 9.6528125 -0.053125 9.6528125 -1 10 C-1 9.34 -1 8.68 -1 8 C-1.66 8 -2.32 8 -3 8 C-2.67 7.34 -2.34 6.68 -2 6 C-1.34 6.33 -0.68 6.66 0 7 C0 6.34 0 5.68 0 5 C-1.65 5 -3.3 5 -5 5 C-5 4.34 -5 3.68 -5 3 C-2.5 1.375 -2.5 1.375 0 0 Z " fill="#2D2D2D" transform="translate(133,311)"/>
<path d="M0 0 C2 2 2 2 2.265625 4.0234375 C2.26046875 4.79945313 2.2553125 5.57546875 2.25 6.375 C2.25515625 7.14585937 2.2603125 7.91671875 2.265625 8.7109375 C1.97688045 11.1992361 1.24139229 12.84234198 0 15 C-0.66 14.34 -1.32 13.68 -2 13 C-2.99 13.495 -2.99 13.495 -4 14 C-3.34 10.7 -2.68 7.4 -2 4 C-1.34 4.66 -0.68 5.32 0 6 C0 4.02 0 2.04 0 0 Z " fill="#2D2D2D" transform="translate(187,159)"/>
<path d="M0 0 C0.625 1.875 0.625 1.875 1 4 C-1 6 -1 6 -4 6.1875 C-7 6 -7 6 -9 5 C-9 4.34 -9 3.68 -9 3 C-9.66 2.67 -10.32 2.34 -11 2 C-7.78419562 0.92806521 -5.36629251 0.85363946 -2 1 C-1.67 1.33 -1.34 1.66 -1 2 C-0.67 1.34 -0.34 0.68 0 0 Z " fill="#282828" transform="translate(233,238)"/>
<path d="M0 0 C1.875 0.125 1.875 0.125 4 1 C5.25 4.0625 5.25 4.0625 6 7 C2.25 9 2.25 9 0 9 C-0.33 7.68 -0.66 6.36 -1 5 C-0.34 5 0.32 5 1 5 C0.67 3.35 0.34 1.7 0 0 Z " fill="#2E2E2E" transform="translate(293,296)"/>
<path d="M0 0 C0 0.99 0 1.98 0 3 C2.475 3.99 2.475 3.99 5 5 C4.67 5.99 4.34 6.98 4 8 C1.69 7.67 -0.62 7.34 -3 7 C-3 6.01 -3 5.02 -3 4 C-5.31 3.67 -7.62 3.34 -10 3 C-10 2.67 -10 2.34 -10 2 C-3.375 0 -3.375 0 0 0 Z " fill="#2A2A2A" transform="translate(199,264)"/>
<path d="M0 0 C0.99 0.33 1.98 0.66 3 1 C2.21625 1.61875 1.4325 2.2375 0.625 2.875 C-3.06939512 5.81217475 -3.06939512 5.81217475 -5 10 C-5.65129797 11.34090759 -6.31513275 12.67592331 -7 14 C-10 9.25 -10 9.25 -10 7 C-8.3203125 5.78125 -8.3203125 5.78125 -6.125 4.5 C-3.74637514 3.10181191 -1.96207916 1.96207916 0 0 Z " fill="#D9D9D9" transform="translate(208,299)"/>
<path d="M0 0 C1.4375 2.0625 1.4375 2.0625 2 4 C0.68 4.33 -0.64 4.66 -2 5 C-2.33 3.68 -2.66 2.36 -3 1 C-3.99 1.495 -3.99 1.495 -5 2 C-5 2.66 -5 3.32 -5 4 C-5.99 4.33 -6.98 4.66 -8 5 C-8.33 3.35 -8.66 1.7 -9 0 C-5.81926598 -1.59036701 -3.37573597 -0.78365299 0 0 Z " fill="#363636" transform="translate(289,280)"/>
<path d="M0 0 C0.55171875 0.26683594 1.1034375 0.53367187 1.671875 0.80859375 C0.681875 1.30359375 0.681875 1.30359375 -0.328125 1.80859375 C-0.98025792 3.8332263 -0.98025792 3.8332263 -1.328125 5.80859375 C-1.885 5.89109375 -2.441875 5.97359375 -3.015625 6.05859375 C-6.02526706 7.03469388 -7.94967252 8.76048189 -10.328125 10.80859375 C-10.988125 10.47859375 -11.648125 10.14859375 -12.328125 9.80859375 C-10.7605732 8.10642395 -9.17352716 6.42218821 -7.578125 4.74609375 C-6.69640625 3.80636719 -5.8146875 2.86664063 -4.90625 1.8984375 C-2.328125 -0.19140625 -2.328125 -0.19140625 0 0 Z " fill="#E9E9E9" transform="translate(389.328125,266.19140625)"/>
<path d="M0 0 C2 2 2 2 2.125 4.9375 C2.08375 5.948125 2.0425 6.95875 2 8 C2 8.99 2 9.98 2 11 C0.68 10.67 -0.64 10.34 -2 10 C-2.66 7.69 -3.32 5.38 -4 3 C-3.01 2.67 -2.02 2.34 -1 2 C-0.67 1.34 -0.34 0.68 0 0 Z " fill="#2B2B2B" transform="translate(363,300)"/>
<path d="M0 0 C0.33 0 0.66 0 1 0 C1.36923077 5.41538462 1.36923077 5.41538462 -0.5 8.375 C-0.995 8.91125 -1.49 9.4475 -2 10 C-4.0625 8.3125 -4.0625 8.3125 -6 6 C-5.75 3.25 -5.75 3.25 -5 1 C-4.67 1.99 -4.34 2.98 -4 4 C-3.34 4 -2.68 4 -2 4 C-2 3.34 -2 2.68 -2 2 C-1.34 2 -0.68 2 0 2 C0 1.34 0 0.68 0 0 Z " fill="#3C3C3C" transform="translate(236,232)"/>
<path d="M0 0 C1.32 0 2.64 0 4 0 C4 8.91 4 17.82 4 27 C3.67 27 3.34 27 3 27 C2.67 19.08 2.34 11.16 2 3 C1.34 3 0.68 3 0 3 C0 2.01 0 1.02 0 0 Z " fill="#222222" transform="translate(342,141)"/>
<path d="M0 0 C0.66 0 1.32 0 2 0 C3.4216319 3.3171411 4.39009109 6.44219804 5 10 C2 10 2 10 -0.1875 8 C-0.785625 7.34 -1.38375 6.68 -2 6 C-1.67 5.34 -1.34 4.68 -1 4 C-0.64830932 2.67139075 -0.31229724 1.33841672 0 0 Z " fill="#2B2B2B" transform="translate(368,309)"/>
<path d="M0 0 C2.31 1.98 4.62 3.96 7 6 C6.67 7.32 6.34 8.64 6 10 C6 9.34 6 8.68 6 8 C4.68 8.33 3.36 8.66 2 9 C0.14223235 5.86501708 -0.20140476 3.62528568 0 0 Z " fill="#EBEBEB" transform="translate(352,300)"/>
<path d="M0 0 C0.99 0 1.98 0 3 0 C3 3.96 3 7.92 3 12 C1.68 11.67 0.36 11.34 -1 11 C-0.835 9.9275 -0.67 8.855 -0.5 7.75 C0.08810915 3.96971248 0.08810915 3.96971248 0 0 Z " fill="#3C3C3C" transform="translate(210,279)"/>
<path d="M0 0 C0.33 0.99 0.66 1.98 1 3 C0.01 4.485 0.01 4.485 -1 6 C0.32 5.67 1.64 5.34 3 5 C2.01 6.485 2.01 6.485 1 8 C-2.625 8.1875 -2.625 8.1875 -6 8 C-5.8125 5.125 -5.8125 5.125 -5 2 C-2.4375 0.625 -2.4375 0.625 0 0 Z " fill="#343434" transform="translate(242,199)"/>
<path d="M0 0 C6.6 0 13.2 0 20 0 C16.13209997 1.93395001 14.8499541 2.23289353 10.75 2.125 C9.85796875 2.10695313 8.9659375 2.08890625 8.046875 2.0703125 C7.03367187 2.03550781 7.03367187 2.03550781 6 2 C6.66 2.66 7.32 3.32 8 4 C5.69 3.67 3.38 3.34 1 3 C0.67 2.01 0.34 1.02 0 0 Z " fill="#242424" transform="translate(96,322)"/>
<path d="M0 0 C1.32 0.99 2.64 1.98 4 3 C4.66 2.67 5.32 2.34 6 2 C5.34 4.31 4.68 6.62 4 9 C3.01 9 2.02 9 1 9 C0.29925156 5.846632 0 3.27275026 0 0 Z " fill="#2C2C2C" transform="translate(377,319)"/>
<path d="M0 0 C0 0.66 0 1.32 0 2 C0.66 2.33 1.32 2.66 2 3 C2 3.66 2 4.32 2 5 C-0.64738916 6.4606285 -1.89448334 7 -5 7 C-5 3 -5 3 -3.625 1.25 C-2 0 -2 0 0 0 Z " fill="#2F2F2F" transform="translate(178,144)"/>
<path d="M0 0 C0.99 0 1.98 0 3 0 C3.66 1.65 4.32 3.3 5 5 C1.37 5 -2.26 5 -6 5 C-5.67 4.34 -5.34 3.68 -5 3 C-3.35 3.33 -1.7 3.66 0 4 C0 2.68 0 1.36 0 0 Z " fill="#515151" transform="translate(207,325)"/>
<path d="M0 0 C0.66 1.98 1.32 3.96 2 6 C1.01 6.33 0.02 6.66 -1 7 C-2.65 5.02 -4.3 3.04 -6 1 C-3 0 -3 0 0 0 Z " fill="#3C3C3C" transform="translate(377,319)"/>
<path d="M0 0 C-0.66 1.98 -1.32 3.96 -2 6 C-5 6 -5 6 -8 4 C-4.5 0 -4.5 0 0 0 Z " fill="#3D3D3D" transform="translate(382,263)"/>
<path d="M0 0 C2 2 2 2 2 6 C4.97 6.495 4.97 6.495 8 7 C8 7.33 8 7.66 8 8 C1.6 8.49230769 1.6 8.49230769 -1.4375 6 C-1.953125 5.34 -2.46875 4.68 -3 4 C-2.34 4 -1.68 4 -1 4 C-0.67 2.68 -0.34 1.36 0 0 Z " fill="#454545" transform="translate(222,237)"/>
<path d="M0 0 C-0.66 1.65 -1.32 3.3 -2 5 C-3.65 5 -5.3 5 -7 5 C-7.33 3.68 -7.66 2.36 -8 1 C-2.25 -1.125 -2.25 -1.125 0 0 Z " fill="#2B2B2B" transform="translate(124,323)"/>
<path d="M0 0 C1.65 0 3.3 0 5 0 C4.01 0.33 3.02 0.66 2 1 C2 2.98 2 4.96 2 7 C0.68 7 -0.64 7 -2 7 C-1.125 2.25 -1.125 2.25 0 0 Z " fill="#E3E3E3" transform="translate(224,230)"/>
<path d="M0 0 C3.26460973 1.80412643 4.88929795 2.83394693 7 6 C6.34 6.66 5.68 7.32 5 8 C5 7.34 5 6.68 5 6 C3.35 5.67 1.7 5.34 0 5 C-0.5625 3.0625 -0.5625 3.0625 -1 1 C-0.67 0.67 -0.34 0.34 0 0 Z " fill="#3B3B3B" transform="translate(130,268)"/>
<path d="M0 0 C1.65 0 3.3 0 5 0 C4.67 1.65 4.34 3.3 4 5 C2.68 5 1.36 5 0 5 C0 3.35 0 1.7 0 0 Z " fill="#E7E7E7" transform="translate(248,230)"/>
<path d="M0 0 C0.66 0 1.32 0 2 0 C2.33 0.99 2.66 1.98 3 3 C0.69 4.32 -1.62 5.64 -4 7 C-4 6.01 -4 5.02 -4 4 C-2.68 3.34 -1.36 2.68 0 2 C0 1.34 0 0.68 0 0 Z " fill="#3B3B3B" transform="translate(130,319)"/>
<path d="M0 0 C0.66 0.33 1.32 0.66 2 1 C1.38722388 3.96175123 0.74627478 5.38058783 -1 8 C-1.66 7.67 -2.32 7.34 -3 7 C-3.1875 4.625 -3.1875 4.625 -3 2 C-2.01 1.34 -1.02 0.68 0 0 Z " fill="#F4F4F4" transform="translate(205,307)"/>
<path d="M0 0 C4 4.75 4 4.75 4 7 C2.68 7.33 1.36 7.66 0 8 C-1.125 2.25 -1.125 2.25 0 0 Z " fill="#E7E7E7" transform="translate(196,320)"/>
<path d="M0 0 C1.9375 0.25 1.9375 0.25 4 1 C4.66 1.99 5.32 2.98 6 4 C4.35 4.33 2.7 4.66 1 5 C0.34 3.68 -0.32 2.36 -1 1 C-0.67 0.67 -0.34 0.34 0 0 Z " fill="#3D3D3D" transform="translate(358,296)"/>
<path d="M0 0 C1.5625 1.1875 1.5625 1.1875 3 3 C2.6875 5.6875 2.6875 5.6875 2 8 C-0.475 7.01 -0.475 7.01 -3 6 C-2.01 4.02 -1.02 2.04 0 0 Z " fill="#3A3A3A" transform="translate(203,290)"/>
<path d="M0 0 C0.33 0 0.66 0 1 0 C1.125 6.75 1.125 6.75 0 9 C-0.99 8.67 -1.98 8.34 -3 8 C-2.37240135 5.07120629 -1.41377341 2.63904371 0 0 Z " fill="#272727" transform="translate(221,232)"/>
<path d="M0 0 C0.99 0.495 0.99 0.495 2 1 C4.09821215 0.60061233 4.09821215 0.60061233 6 0 C4.19587357 3.26460973 3.16605307 4.88929795 0 7 C0 4.69 0 2.38 0 0 Z " fill="#EDEDED" transform="translate(241,193)"/>
<path d="M0 0 C1.32 0.33 2.64 0.66 4 1 C4 1.66 4 2.32 4 3 C3.01 3.33 2.02 3.66 1 4 C0.67 5.65 0.34 7.3 0 9 C-2 7 -2 7 -2.125 4.375 C-2.08375 3.59125 -2.0425 2.8075 -2 2 C-1.34 2 -0.68 2 0 2 C0 1.34 0 0.68 0 0 Z " fill="#393939" transform="translate(307,319)"/>
<path d="M0 0 C0.33 0 0.66 0 1 0 C1.33 4.62 1.66 9.24 2 14 C1.01 13.67 0.02 13.34 -1 13 C-0.67 8.71 -0.34 4.42 0 0 Z " fill="#5A5A5A" transform="translate(135,292)"/>
<path d="M0 0 C0.99 0.33 1.98 0.66 3 1 C3.625 3.3125 3.625 3.3125 4 6 C3.01 7.485 3.01 7.485 2 9 C1.01 8.67 0.02 8.34 -1 8 C-0.7525 7.13375 -0.7525 7.13375 -0.5 6.25 C0.14462031 3.73335631 0.14462031 3.73335631 0 0 Z " fill="#383838" transform="translate(274,272)"/>
<path d="M0 0 C1.65 1.65 3.3 3.3 5 5 C2.37886292 5 0.49064888 4.68707555 -2 4 C-1.34 2.68 -0.68 1.36 0 0 Z " fill="#F1F1F1" transform="translate(373,323)"/>
<path d="M0 0 C0.99 0.33 1.98 0.66 3 1 C2.67 1.66 2.34 2.32 2 3 C2.66 3.33 3.32 3.66 4 4 C3.01 4.33 2.02 4.66 1 5 C0.67 5.66 0.34 6.32 0 7 C-0.66 6.67 -1.32 6.34 -2 6 C-1.125 1.125 -1.125 1.125 0 0 Z " fill="#343434" transform="translate(146,177)"/>
<path d="M0 0 C0.99 0 1.98 0 3 0 C4.125 3.75 4.125 3.75 3 6 C1.68 5.67 0.36 5.34 -1 5 C-1 4.34 -1 3.68 -1 3 C-0.34 3 0.32 3 1 3 C0.67 2.01 0.34 1.02 0 0 Z " fill="#2A2A2A" transform="translate(283,281)"/>
<path d="M0 0 C1.65 0.33 3.3 0.66 5 1 C4.01 1.33 3.02 1.66 2 2 C2.66 2.66 3.32 3.32 4 4 C1.69 4.33 -0.62 4.66 -3 5 C-2.01 3.35 -1.02 1.7 0 0 Z " fill="#252525" transform="translate(223,226)"/>
<path d="M0 0 C0 3 0 3 -2.5 5.6875 C-3.325 6.450625 -4.15 7.21375 -5 8 C-5.33 6.68 -5.66 5.36 -6 4 C-4.02 2.68 -2.04 1.36 0 0 Z " fill="#E5E5E5" transform="translate(181,181)"/>
<path d="M0 0 C0.99 0.33 1.98 0.66 3 1 C2.34 2.65 1.68 4.3 1 6 C-1.97 5.505 -1.97 5.505 -5 5 C-3.625 3.5 -3.625 3.5 -2 2 C-1.34 2 -0.68 2 0 2 C0 1.34 0 0.68 0 0 Z " fill="#353535" transform="translate(103,146)"/>
<path d="M0 0 C1.9375 0.375 1.9375 0.375 4 1 C4.33 1.66 4.66 2.32 5 3 C4.34 3 3.68 3 3 3 C2.67 3.99 2.34 4.98 2 6 C1.01 5.34 0.02 4.68 -1 4 C-0.34 4 0.32 4 1 4 C0.67 2.68 0.34 1.36 0 0 Z " fill="#EEEEEE" transform="translate(363,314)"/>
<path d="M0 0 C1.9375 0.1875 1.9375 0.1875 4 1 C5.25 3.0625 5.25 3.0625 6 5 C5.34 5.66 4.68 6.32 4 7 C3.731875 6.38125 3.46375 5.7625 3.1875 5.125 C2.04443152 2.7004767 2.04443152 2.7004767 -1 1 C-0.67 0.67 -0.34 0.34 0 0 Z " fill="#363636" transform="translate(194,311)"/>
<path d="M0 0 C1.134375 0.020625 2.26875 0.04125 3.4375 0.0625 C3.4375 1.0525 3.4375 2.0425 3.4375 3.0625 C1.4575 3.3925 -0.5225 3.7225 -2.5625 4.0625 C-2.5625 3.4025 -2.5625 2.7425 -2.5625 2.0625 C-3.2225 1.7325 -3.8825 1.4025 -4.5625 1.0625 C-3.5625 0.0625 -3.5625 0.0625 0 0 Z " fill="#303030" transform="translate(226.5625,238.9375)"/>
<path d="M0 0 C2.2477975 2.05233685 3.0022242 3.00667261 4 6 C2.35 5.67 0.7 5.34 -1 5 C-0.67 3.35 -0.34 1.7 0 0 Z " fill="#343434" transform="translate(184,202)"/>
<path d="M0 0 C1.65 1.32 3.3 2.64 5 4 C4.67 4.66 4.34 5.32 4 6 C2.35 5.67 0.7 5.34 -1 5 C-0.67 3.35 -0.34 1.7 0 0 Z " fill="#282828" transform="translate(202,318)"/>
<path d="M0 0 C0.53625 0.37125 1.0725 0.7425 1.625 1.125 C-3.79038462 3.34038462 -3.79038462 3.34038462 -6.75 2.25 C-7.28625 1.87875 -7.8225 1.5075 -8.375 1.125 C-2.95961538 -1.09038462 -2.95961538 -1.09038462 0 0 Z " fill="#292929" transform="translate(197.375,299.875)"/>
<path d="M0 0 C0.99 0 1.98 0 3 0 C2.34 1.65 1.68 3.3 1 5 C-0.65 4.67 -2.3 4.34 -4 4 C-3.01 3.67 -2.02 3.34 -1 3 C-0.67 2.01 -0.34 1.02 0 0 Z " fill="#393939" transform="translate(118,266)"/>
<path d="M0 0 C0.33 0.99 0.66 1.98 1 3 C-1.64738916 4.4606285 -2.89448334 5 -6 5 C-5.34 3.68 -4.68 2.36 -4 1 C-2.68 1.33 -1.36 1.66 0 2 C0 1.34 0 0.68 0 0 Z " fill="#2B2B2B" transform="translate(257,233)"/>
</svg>
